<svg width="32" height="32" viewBox="0 0 32 32" fill="none" xmlns="http://www.w3.org/2000/svg">
<path d="M23.7501 18.3001C26.0973 18.3001 28.0001 16.3973 28.0001 14.0501C28.0001 11.7028 26.0973 9.8 23.7501 9.8C21.4028 9.8 19.5 11.7028 19.5 14.0501C19.5 15.5904 20.3195 16.9394 21.5463 17.6848C22.1889 18.0753 22.9432 18.3001 23.7501 18.3001Z" fill="#323246" fill-opacity="0.8"/>
<path d="M16.111 24.3475C17.8467 24.3475 19.2538 22.9404 19.2538 21.2047C19.2538 20.8735 19.2025 20.5543 19.1076 20.2545C19.0934 20.2097 19.0782 20.1653 19.062 20.1214C18.6207 18.9195 17.466 18.062 16.111 18.062C14.3753 18.062 12.9683 19.469 12.9683 21.2047C12.9683 22.9404 14.3753 24.3475 16.111 24.3475Z" fill="#323246" fill-opacity="0.8"/>
<path d="M9.4392 14.3992C9.4392 15.9011 8.2216 17.1188 6.7196 17.1188C5.21761 17.1188 4 15.9011 4 14.3992C4 12.8972 5.21761 11.6796 6.7196 11.6796C8.2216 11.6796 9.4392 12.8972 9.4392 14.3992Z" fill="#323246" fill-opacity="0.8"/>
<path d="M8.28125 16.626C8.69933 16.3322 9.03092 15.9237 9.23027 15.4462L14.3534 18.5989C13.7108 19.0332 13.2374 19.6989 13.0529 20.4764L8.28125 16.626Z" fill="#323246" fill-opacity="0.8"/>
<path d="M21.9016 17.8782C21.7798 17.8193 21.6612 17.7547 21.5463 17.6848C20.8926 17.2877 20.3545 16.7192 19.9945 16.0416L17.7777 18.5399C18.3638 18.9073 18.8201 19.4625 19.062 20.1214C19.0782 20.1653 19.0934 20.2097 19.1076 20.2545L21.9016 17.8782Z" fill="#323246" fill-opacity="0.8"/>
<path d="M23.7501 18.3001C26.0973 18.3001 28.0001 16.3973 28.0001 14.0501C28.0001 11.7028 26.0973 9.8 23.7501 9.8C21.4028 9.8 19.5 11.7028 19.5 14.0501C19.5 15.5904 20.3195 16.9394 21.5463 17.6848C22.1889 18.0753 22.9432 18.3001 23.7501 18.3001Z" fill="#323246"/>
<path d="M16.111 24.3475C17.8467 24.3475 19.2538 22.9404 19.2538 21.2047C19.2538 20.8735 19.2025 20.5543 19.1076 20.2545C19.0934 20.2097 19.0782 20.1653 19.062 20.1214C18.6207 18.9195 17.466 18.062 16.111 18.062C14.3753 18.062 12.9683 19.469 12.9683 21.2047C12.9683 22.9404 14.3753 24.3475 16.111 24.3475Z" fill="#323246"/>
<path d="M9.4392 14.3992C9.4392 15.9011 8.2216 17.1188 6.7196 17.1188C5.21761 17.1188 4 15.9011 4 14.3992C4 12.8972 5.21761 11.6796 6.7196 11.6796C8.2216 11.6796 9.4392 12.8972 9.4392 14.3992Z" fill="#323246"/>
</svg>
