<svg width="40" height="40" viewBox="0 0 40 40" fill="none" xmlns="http://www.w3.org/2000/svg">
<rect width="40" height="40" rx="20" fill="#323246"/>
<path d="M27.7501 22.3001C30.0973 22.3001 32.0001 20.3973 32.0001 18.0501C32.0001 15.7028 30.0973 13.8 27.7501 13.8C25.4028 13.8 23.5 15.7028 23.5 18.0501C23.5 19.5904 24.3195 20.9394 25.5463 21.6848C26.1889 22.0753 26.9432 22.3001 27.7501 22.3001Z" fill="white" fill-opacity="0.8"/>
<path d="M20.111 28.3475C21.8467 28.3475 23.2538 26.9404 23.2538 25.2047C23.2538 24.8735 23.2025 24.5543 23.1076 24.2545C23.0934 24.2097 23.0782 24.1653 23.062 24.1214C22.6207 22.9195 21.466 22.062 20.111 22.062C18.3753 22.062 16.9683 23.469 16.9683 25.2047C16.9683 26.9404 18.3753 28.3475 20.111 28.3475Z" fill="white" fill-opacity="0.8"/>
<path d="M13.4392 18.3992C13.4392 19.9011 12.2216 21.1188 10.7196 21.1188C9.21761 21.1188 8 19.9011 8 18.3992C8 16.8972 9.21761 15.6796 10.7196 15.6796C12.2216 15.6796 13.4392 16.8972 13.4392 18.3992Z" fill="white" fill-opacity="0.8"/>
<path d="M12.2812 20.626C12.6993 20.3322 13.0309 19.9237 13.2303 19.4462L18.3534 22.5989C17.7108 23.0332 17.2374 23.6989 17.0529 24.4764L12.2812 20.626Z" fill="white" fill-opacity="0.8"/>
<path d="M25.9016 21.8782C25.7798 21.8193 25.6612 21.7547 25.5463 21.6848C24.8926 21.2877 24.3545 20.7192 23.9945 20.0416L21.7777 22.5399C22.3638 22.9073 22.8201 23.4625 23.062 24.1214C23.0782 24.1653 23.0934 24.2097 23.1076 24.2545L25.9016 21.8782Z" fill="white" fill-opacity="0.8"/>
<path d="M27.7501 22.3001C30.0973 22.3001 32.0001 20.3973 32.0001 18.0501C32.0001 15.7028 30.0973 13.8 27.7501 13.8C25.4028 13.8 23.5 15.7028 23.5 18.0501C23.5 19.5904 24.3195 20.9394 25.5463 21.6848C26.1889 22.0753 26.9432 22.3001 27.7501 22.3001Z" fill="white"/>
<path d="M20.111 28.3475C21.8467 28.3475 23.2538 26.9404 23.2538 25.2047C23.2538 24.8735 23.2025 24.5543 23.1076 24.2545C23.0934 24.2097 23.0782 24.1653 23.062 24.1214C22.6207 22.9195 21.466 22.062 20.111 22.062C18.3753 22.062 16.9683 23.469 16.9683 25.2047C16.9683 26.9404 18.3753 28.3475 20.111 28.3475Z" fill="white"/>
<path d="M13.4392 18.3992C13.4392 19.9011 12.2216 21.1188 10.7196 21.1188C9.21761 21.1188 8 19.9011 8 18.3992C8 16.8972 9.21761 15.6796 10.7196 15.6796C12.2216 15.6796 13.4392 16.8972 13.4392 18.3992Z" fill="white"/>
</svg>
