<?xml version="1.0" encoding="UTF-8"?> <svg xmlns="http://www.w3.org/2000/svg" width="80" height="79" viewBox="0 0 80 79" fill="none"> <path d="M45.1513 39.4993C45.1513 52.036 35.0576 62.1994 22.6059 62.1994C10.1542 62.1994 0.0611572 52.039 0.0611572 39.4993C0.0611572 26.9596 10.155 16.8 22.6059 16.8C35.0568 16.8 45.1513 26.9627 45.1513 39.4993ZM69.884 39.4993C69.884 51.301 64.8367 60.8674 58.6112 60.8674C52.3858 60.8674 47.3385 51.298 47.3385 39.4993C47.3385 27.7007 52.3858 18.1313 58.6112 18.1313C64.8367 18.1313 69.884 27.7007 69.884 39.4993ZM79.9999 39.4993C79.9999 50.0731 78.2246 58.6442 76.0352 58.6442C73.8457 58.6442 72.0704 50.07 72.0704 39.4993C72.0704 28.9286 73.8457 20.3544 76.0359 20.3544C78.2262 20.3544 79.9999 28.9263 79.9999 39.4993Z" fill="#222222"></path> </svg> 