<?xml version="1.0" encoding="UTF-8"?> <svg xmlns="http://www.w3.org/2000/svg" width="50" height="50" viewBox="0 0 50 50" fill="none"> <path d="M50 25C50 38.805 38.805 50 25 50C11.195 50 0 38.805 0 25C0 11.195 11.195 0 25 0C38.805 0 50 11.195 50 25Z" fill="url(#paint0_linear)"></path> <path d="M33 17L13 25.146L22.632 27.368L24.854 37L33 17Z" fill="white"></path> <path d="M24.854 39C24.801 39 24.747 38.998 24.693 38.993C23.824 38.924 23.1 38.299 22.904 37.449L20.963 29.036L12.549 27.096C11.699 26.9 11.075 26.176 11.005 25.307C10.935 24.438 11.437 23.623 12.244 23.294L32.244 15.148C32.99 14.845 33.844 15.017 34.412 15.586C34.981 16.154 35.154 17.009 34.85 17.755L26.704 37.755C26.397 38.512 25.662 39 24.854 39ZM19.602 24.617L23.081 25.419C23.826 25.591 24.408 26.173 24.58 26.919L25.383 30.398L29.356 20.644L19.602 24.617Z" fill="white"></path> <defs> <linearGradient id="paint0_linear" x1="25" y1="58.025" x2="25" y2="8.025" gradientUnits="userSpaceOnUse"> <stop stop-color="#155CDE"></stop> <stop offset="0.278" stop-color="#1F7FE5"></stop> <stop offset="0.569" stop-color="#279CEB"></stop> <stop offset="0.82" stop-color="#2CAFEF"></stop> <stop offset="1" stop-color="#2EB5F0"></stop> </linearGradient> </defs> </svg> 