<svg width="64" height="64" viewBox="0 0 64 64" fill="none" xmlns="http://www.w3.org/2000/svg">
<path d="M3.2 22.4H6.4C8.168 22.4 9.6 23.832 9.6 25.6V52.8C9.6 54.568 8.168 56 6.4 56H3.2C1.432 56 0 54.568 0 52.8V25.6C0 23.832 1.432 22.4 3.2 22.4ZM4.7696 17.6H4.7168C1.8528 17.6 0 15.4624 0 12.8C0 10.0704 1.912 8 4.8304 8C7.7472 8 9.5472 10.0704 9.6 12.8C9.6 15.4624 7.7472 17.6 4.7696 17.6ZM44.8 56H41.6C39.832 56 38.4 54.568 38.4 52.8V37.8048C38.4 33.4064 35.9904 30.4064 31.6176 30.4064C28.4928 30.4064 26.6048 32.4304 25.816 34.3824C25.5264 35.0864 25.6 37.024 25.6 38V52.8C25.6 54.568 24.1792 56 22.4112 56H19.2C17.432 56 16 54.568 16 52.8V25.6C16 23.832 17.432 22.4 19.2 22.4H22.4112C24.1792 22.4 25.6112 23.832 25.6112 25.6V27.2336C27.0576 25 29.7024 22.4 35.4768 22.4C42.6336 22.4 48 26.5008 48 36.5472V52.8C48 54.568 46.568 56 44.8 56Z" fill="#F2F3F5"/>
</svg>
