<svg width="64" height="64" viewBox="0 0 64 64" fill="none" xmlns="http://www.w3.org/2000/svg">
<path d="M36.1209 31.9994C36.1209 42.0288 28.046 50.1595 18.0846 50.1595C8.12326 50.1595 0.0488281 42.0312 0.0488281 31.9994C0.0488281 21.9677 8.1239 13.84 18.0846 13.84C28.0453 13.84 36.1209 21.9702 36.1209 31.9994ZM55.9071 31.9994C55.9071 41.4408 51.8693 49.0939 46.8889 49.0939C41.9085 49.0939 37.8707 41.4384 37.8707 31.9994C37.8707 22.5606 41.9085 14.905 46.8889 14.905C51.8693 14.905 55.9071 22.5606 55.9071 31.9994ZM63.9998 31.9994C63.9998 40.4585 62.5796 47.3154 60.8281 47.3154C59.0765 47.3154 57.6562 40.456 57.6562 31.9994C57.6562 23.5429 59.0765 16.6835 60.8286 16.6835C62.5809 16.6835 63.9998 23.541 63.9998 31.9994Z" fill="white"/>
</svg>
