<svg width="64" height="64" viewBox="0 0 64 64" fill="none" xmlns="http://www.w3.org/2000/svg">
<path d="M1.24001 10C0.555523 10 0 10.5555 0 11.24V28.743C0 36.3827 5.80694 43.0232 13.4342 43.456C20.7465 43.8702 26.9675 38.7389 28.2683 31.8866C28.9751 32.8414 29.6935 33.7287 30.4189 34.5434L26.0426 53.1169C25.957 53.4864 26.0431 53.8716 26.2775 54.1704C26.5143 54.4655 26.8717 54.6403 27.2511 54.6403H33.5989C34.1742 54.6403 34.6699 54.2526 34.8026 53.6933C35.5726 50.4433 36.7798 45.3503 37.8735 40.7338L39.0021 41.3877C41.6867 42.7777 44.4109 43.4802 47.1203 43.4802C56.0384 43.4802 63.1486 35.595 61.8454 26.4301C60.9823 20.359 56.3138 15.3548 50.3196 14.0639C43.3396 12.5598 36.6117 16.137 33.72 22.0828C33.72 22.0828 33.3991 22.7951 33.1411 23.5069C31.0951 19.9778 29.8936 16.3167 29.2637 13.6643C29.0343 12.6971 28.6906 10.946 28.651 10.8331C28.4786 10.3334 28.0107 10 27.4812 10H21.0801C20.3956 10 19.8401 10.5555 19.8401 11.24V28.9731C19.8401 31.8859 17.7163 34.4908 14.8171 34.7735C11.4914 35.0984 8.68005 32.4813 8.68005 29.2201V11.24C8.68005 10.5555 8.12453 10 7.44005 10H1.24001ZM47.1203 22.4001C50.539 22.4001 53.3203 25.1814 53.3203 28.6001C53.3203 32.0188 50.539 34.8002 47.1203 34.8002C44.3613 34.8002 41.805 33.1364 40.0145 31.6856C40.6679 28.9266 41.1066 27.0787 41.114 27.0477C41.8183 24.311 44.2893 22.4001 47.1203 22.4001Z" fill="white"/>
</svg>
