<svg width="24" height="24" viewBox="0 0 24 24" fill="none" xmlns="http://www.w3.org/2000/svg">
<path d="M19.7501 14.3001C22.0973 14.3001 24.0001 12.3973 24.0001 10.0501C24.0001 7.70282 22.0973 5.8 19.7501 5.8C17.4028 5.8 15.5 7.70282 15.5 10.0501C15.5 11.5904 16.3195 12.9394 17.5463 13.6848C18.1889 14.0753 18.9432 14.3001 19.7501 14.3001Z" fill="#323246" fill-opacity="0.8"/>
<path d="M12.111 20.3475C13.8467 20.3475 15.2538 18.9404 15.2538 17.2047C15.2538 16.8735 15.2025 16.5543 15.1076 16.2545C15.0934 16.2097 15.0782 16.1653 15.062 16.1214C14.6207 14.9195 13.466 14.062 12.111 14.062C10.3753 14.062 8.96826 15.469 8.96826 17.2047C8.96826 18.9404 10.3753 20.3475 12.111 20.3475Z" fill="#323246" fill-opacity="0.8"/>
<path d="M5.4392 10.3992C5.4392 11.9011 4.2216 13.1188 2.7196 13.1188C1.21761 13.1188 0 11.9011 0 10.3992C0 8.89716 1.21761 7.67955 2.7196 7.67955C4.2216 7.67955 5.4392 8.89716 5.4392 10.3992Z" fill="#323246" fill-opacity="0.8"/>
<path d="M4.28125 12.626C4.69933 12.3322 5.03092 11.9237 5.23027 11.4462L10.3534 14.5989C9.71079 15.0332 9.23741 15.6989 9.05291 16.4764L4.28125 12.626Z" fill="#323246" fill-opacity="0.8"/>
<path d="M17.9016 13.8782C17.7798 13.8193 17.6612 13.7547 17.5463 13.6848C16.8926 13.2877 16.3545 12.7192 15.9945 12.0416L13.7777 14.5399C14.3638 14.9073 14.8201 15.4625 15.062 16.1214C15.0782 16.1653 15.0934 16.2097 15.1076 16.2545L17.9016 13.8782Z" fill="#323246" fill-opacity="0.8"/>
<path d="M19.7501 14.3001C22.0973 14.3001 24.0001 12.3973 24.0001 10.0501C24.0001 7.70282 22.0973 5.8 19.7501 5.8C17.4028 5.8 15.5 7.70282 15.5 10.0501C15.5 11.5904 16.3195 12.9394 17.5463 13.6848C18.1889 14.0753 18.9432 14.3001 19.7501 14.3001Z" fill="#323246"/>
<path d="M12.111 20.3475C13.8467 20.3475 15.2538 18.9404 15.2538 17.2047C15.2538 16.8735 15.2025 16.5543 15.1076 16.2545C15.0934 16.2097 15.0782 16.1653 15.062 16.1214C14.6207 14.9195 13.466 14.062 12.111 14.062C10.3753 14.062 8.96826 15.469 8.96826 17.2047C8.96826 18.9404 10.3753 20.3475 12.111 20.3475Z" fill="#323246"/>
<path d="M5.4392 10.3992C5.4392 11.9011 4.2216 13.1188 2.7196 13.1188C1.21761 13.1188 0 11.9011 0 10.3992C0 8.89716 1.21761 7.67955 2.7196 7.67955C4.2216 7.67955 5.4392 8.89716 5.4392 10.3992Z" fill="#323246"/>
</svg>
