<svg width="90" height="90" viewBox="0 0 90 90" fill="none" xmlns="http://www.w3.org/2000/svg">
<path d="M83.3802 48.6667H41.6875" stroke="#FDFFFD" stroke-width="5.95555" stroke-miterlimit="10" stroke-linecap="round" stroke-linejoin="round"/>
<path d="M65.5104 30.8021L83.3802 48.6667L65.5104 66.5313" stroke="#FDFFFD" stroke-width="5.95555" stroke-miterlimit="10" stroke-linecap="round" stroke-linejoin="round"/>
<path d="M32.7552 48.6667C32.7552 50.3125 31.4219 51.6458 29.776 51.6458C28.1354 51.6458 26.8021 50.3125 26.8021 48.6667C26.8021 47.0208 28.1354 45.6875 29.776 45.6875C31.4219 45.6875 32.7552 47.0208 32.7552 48.6667Z" fill="#FDFFFD"/>
<path d="M20.8437 48.6667C20.8437 50.3125 19.5104 51.6458 17.8646 51.6458C16.224 51.6458 14.8906 50.3125 14.8906 48.6667C14.8906 47.0208 16.224 45.6875 17.8646 45.6875C19.5104 45.6875 20.8437 47.0208 20.8437 48.6667Z" fill="#FDFFFD"/>
<path d="M8.93229 48.6667C8.93229 50.3125 7.59896 51.6458 5.95312 51.6458C4.3125 51.6458 2.97916 50.3125 2.97916 48.6667C2.97916 47.0208 4.3125 45.6875 5.95312 45.6875C7.59896 45.6875 8.93229 47.0208 8.93229 48.6667Z" fill="#FDFFFD"/>
</svg>
