<svg width="90" height="90" viewBox="0 0 90 90" fill="none" xmlns="http://www.w3.org/2000/svg">
<path d="M83.3802 52.6667H41.6875" stroke="#FDFFFD" stroke-width="5.95555" stroke-miterlimit="10" stroke-linecap="round" stroke-linejoin="round"/>
<path d="M65.5104 34.8021L83.3802 52.6667L65.5104 70.5313" stroke="#FDFFFD" stroke-width="5.95555" stroke-miterlimit="10" stroke-linecap="round" stroke-linejoin="round"/>
<path d="M32.7552 52.6667C32.7552 54.3125 31.4219 55.6458 29.776 55.6458C28.1354 55.6458 26.8021 54.3125 26.8021 52.6667C26.8021 51.0208 28.1354 49.6875 29.776 49.6875C31.4219 49.6875 32.7552 51.0208 32.7552 52.6667Z" fill="#FDFFFD"/>
<path d="M20.8437 52.6667C20.8437 54.3125 19.5104 55.6458 17.8646 55.6458C16.224 55.6458 14.8906 54.3125 14.8906 52.6667C14.8906 51.0208 16.224 49.6875 17.8646 49.6875C19.5104 49.6875 20.8437 51.0208 20.8437 52.6667Z" fill="#FDFFFD"/>
<path d="M8.93229 52.6667C8.93229 54.3125 7.59896 55.6458 5.95312 55.6458C4.3125 55.6458 2.97916 54.3125 2.97916 52.6667C2.97916 51.0208 4.3125 49.6875 5.95312 49.6875C7.59896 49.6875 8.93229 51.0208 8.93229 52.6667Z" fill="#FDFFFD"/>
</svg>
