<?xml version="1.0" encoding="UTF-8"?>
<svg xmlns="http://www.w3.org/2000/svg" xmlns:xlink="http://www.w3.org/1999/xlink" width="67.5pt" height="67.5pt" viewBox="0 0 67.5 67.5" version="1.1">
<g id="surface7688">
<path style=" stroke:none;fill-rule:nonzero;fill:rgb(9.019608%,9.019608%,9.411765%);fill-opacity:1;" d="M 49.113281 17.84375 C 48.203125 17.84375 47.382812 18.394531 47.042969 19.238281 C 46.699219 20.078125 46.902344 21.046875 47.554688 21.679688 L 57.140625 31.265625 L 31.265625 31.265625 C 30.460938 31.253906 29.710938 31.679688 29.304688 32.375 C 28.898438 33.070312 28.898438 33.929688 29.304688 34.625 C 29.710938 35.320312 30.460938 35.746094 31.265625 35.734375 L 57.140625 35.734375 L 47.554688 45.320312 C 46.972656 45.882812 46.734375 46.714844 46.941406 47.496094 C 47.144531 48.277344 47.753906 48.890625 48.539062 49.09375 C 49.320312 49.296875 50.152344 49.0625 50.710938 48.480469 L 63.917969 35.273438 C 64.472656 34.851562 64.796875 34.195312 64.796875 33.496094 C 64.792969 32.800781 64.46875 32.140625 63.910156 31.71875 L 50.710938 18.519531 C 50.292969 18.089844 49.714844 17.84375 49.113281 17.84375 Z M 4.464844 31.265625 C 3.234375 31.265625 2.234375 32.265625 2.234375 33.5 C 2.234375 34.734375 3.234375 35.734375 4.464844 35.734375 C 5.699219 35.734375 6.699219 34.734375 6.699219 33.5 C 6.699219 32.265625 5.699219 31.265625 4.464844 31.265625 Z M 13.398438 31.265625 C 12.167969 31.265625 11.167969 32.265625 11.167969 33.5 C 11.167969 34.734375 12.167969 35.734375 13.398438 35.734375 C 14.632812 35.734375 15.632812 34.734375 15.632812 33.5 C 15.632812 32.265625 14.632812 31.265625 13.398438 31.265625 Z M 22.332031 31.265625 C 21.101562 31.265625 20.101562 32.265625 20.101562 33.5 C 20.101562 34.734375 21.101562 35.734375 22.332031 35.734375 C 23.566406 35.734375 24.566406 34.734375 24.566406 33.5 C 24.566406 32.265625 23.566406 31.265625 22.332031 31.265625 Z M 22.332031 31.265625 "/>
</g>
</svg>
