<svg width="90" height="90" viewBox="0 0 90 90" fill="none" xmlns="http://www.w3.org/2000/svg">
<path d="M83.3802 56.6667H41.6875" stroke="#FDFFFD" stroke-width="5.95555" stroke-miterlimit="10" stroke-linecap="round" stroke-linejoin="round"/>
<path d="M65.5104 38.8021L83.3802 56.6667L65.5104 74.5313" stroke="#FDFFFD" stroke-width="5.95555" stroke-miterlimit="10" stroke-linecap="round" stroke-linejoin="round"/>
<path d="M32.7552 56.6667C32.7552 58.3125 31.4219 59.6458 29.776 59.6458C28.1354 59.6458 26.8021 58.3125 26.8021 56.6667C26.8021 55.0208 28.1354 53.6875 29.776 53.6875C31.4219 53.6875 32.7552 55.0208 32.7552 56.6667Z" fill="#FDFFFD"/>
<path d="M20.8437 56.6667C20.8437 58.3125 19.5104 59.6458 17.8646 59.6458C16.224 59.6458 14.8906 58.3125 14.8906 56.6667C14.8906 55.0208 16.224 53.6875 17.8646 53.6875C19.5104 53.6875 20.8437 55.0208 20.8437 56.6667Z" fill="#FDFFFD"/>
<path d="M8.93229 56.6667C8.93229 58.3125 7.59896 59.6458 5.95312 59.6458C4.3125 59.6458 2.97916 58.3125 2.97916 56.6667C2.97916 55.0208 4.3125 53.6875 5.95312 53.6875C7.59896 53.6875 8.93229 55.0208 8.93229 56.6667Z" fill="#FDFFFD"/>
</svg>
