<?xml version="1.0" encoding="utf-8"?>
<svg xmlns="http://www.w3.org/2000/svg" viewBox="0 0 50 50" fill="#333333"><path d="M 6.75 2 C 6.648438 2.015625 6.53125 2.066406 6.375 2.15625 C 6.21875 2.246094 6.039063 2.425781 5.9375 2.65625 C 5.835938 2.886719 5.816406 3.125 5.84375 3.28125 C 5.957031 3.90625 6.15625 3.894531 6.3125 4.0625 C 6.621094 4.398438 7.0625 4.816406 7.65625 5.4375 C 8.839844 6.679688 10.582031 8.695313 12.40625 11.9375 C 15.109375 16.746094 17.980469 24.21875 19.28125 35.59375 C 17.714844 31.96875 15.636719 28.953125 13.5 26.53125 C 11.3125 24.054688 9.070313 22.214844 7.21875 20.96875 C 6.292969 20.34375 5.46875 19.859375 4.78125 19.53125 C 4.09375 19.203125 3.648438 19 3 19 C 2.867188 19 2.726563 19.003906 2.5 19.09375 C 2.273438 19.183594 1.90625 19.457031 1.8125 19.8125 C 1.71875 20.167969 1.839844 20.410156 1.90625 20.5625 C 1.972656 20.714844 2.027344 20.8125 2.09375 20.90625 C 2.363281 21.273438 2.691406 21.609375 3.15625 22.09375 C 4.085938 23.058594 5.484375 24.53125 6.9375 26.6875 C 9.84375 31.003906 13 38 13 48.9375 C 12.996094 49.296875 13.183594 49.632813 13.496094 49.816406 C 13.808594 49.996094 14.191406 49.996094 14.503906 49.816406 C 14.816406 49.632813 15.003906 49.296875 15 48.9375 C 15 37.613281 11.6875 30.15625 8.59375 25.5625 C 7.722656 24.269531 7.09375 23.675781 6.34375 22.8125 C 8.015625 23.964844 10.027344 25.640625 12 27.875 C 16.128906 32.550781 20 39.523438 20 48.9375 C 20.003906 49 20.015625 49.0625 20.03125 49.125 C 20.046875 49.222656 20.078125 49.316406 20.125 49.40625 C 20.164063 49.496094 20.21875 49.582031 20.28125 49.65625 C 20.328125 49.703125 20.382813 49.746094 20.4375 49.78125 C 20.46875 49.804688 20.5 49.824219 20.53125 49.84375 C 20.621094 49.890625 20.714844 49.921875 20.8125 49.9375 C 20.945313 49.964844 21.085938 49.964844 21.21875 49.9375 C 21.320313 49.910156 21.414063 49.867188 21.5 49.8125 C 21.519531 49.804688 21.542969 49.792969 21.5625 49.78125 C 21.621094 49.734375 21.671875 49.683594 21.71875 49.625 C 21.792969 49.5625 21.855469 49.488281 21.90625 49.40625 C 21.953125 49.308594 21.984375 49.203125 22 49.09375 C 22.003906 49.042969 22.003906 48.988281 22 48.9375 C 22 29.441406 17.988281 17.78125 14.15625 10.96875 C 13.25 9.355469 12.359375 8.042969 11.53125 6.9375 C 13.324219 8.433594 15.34375 10.425781 17.40625 13.34375 C 21.753906 19.492188 25.933594 29.089844 26.8125 43.375 C 26.808594 43.417969 26.808594 43.457031 26.8125 43.5 C 26.8125 43.511719 26.8125 43.519531 26.8125 43.53125 C 26.820313 43.550781 26.832031 43.574219 26.84375 43.59375 C 26.945313 45.3125 27 47.082031 27 48.9375 C 26.996094 49.296875 27.183594 49.632813 27.496094 49.816406 C 27.808594 49.996094 28.191406 49.996094 28.503906 49.816406 C 28.816406 49.632813 29.003906 49.296875 29 48.9375 C 29 47.027344 28.917969 45.210938 28.8125 43.4375 C 28.820313 43.375 28.820313 43.3125 28.8125 43.25 C 28.8125 43.238281 28.8125 43.230469 28.8125 43.21875 C 29.226563 29.316406 33.085938 21.53125 36.5625 17.1875 C 38.304688 15.015625 39.957031 13.6875 41.09375 12.90625 C 41.660156 12.515625 42.074219 12.285156 42.375 12.09375 C 42.527344 11.996094 42.605469 12.078125 42.90625 11.65625 C 42.980469 11.550781 43.101563 11.335938 43.09375 11 C 43.085938 10.664063 42.847656 10.316406 42.65625 10.1875 C 42.273438 9.929688 42.140625 10.003906 42.03125 10 C 41.503906 9.976563 40.628906 10.074219 39.28125 10.46875 C 37.933594 10.863281 36.210938 11.578125 34.40625 12.84375 C 31.253906 15.050781 27.882813 18.960938 25.625 25.625 C 23.8125 20.046875 21.453125 15.613281 19.03125 12.1875 C 16.464844 8.558594 13.828125 6.058594 11.6875 4.4375 C 10.617188 3.625 9.671875 3.050781 8.90625 2.65625 C 8.140625 2.261719 7.707031 2 7 2 C 6.929688 2 6.851563 1.984375 6.75 2 Z M 37.0625 13.75 C 36.394531 14.398438 35.710938 15.050781 35 15.9375 C 32.128906 19.519531 29.164063 25.1875 27.71875 34 C 27.410156 32.296875 27.027344 30.699219 26.625 29.15625 C 26.628906 29.144531 26.621094 29.136719 26.625 29.125 C 28.699219 20.949219 32.351563 16.71875 35.5625 14.46875 C 36.125 14.074219 36.535156 14.03125 37.0625 13.75 Z M 49 19 C 48.351563 19 47.910156 19.234375 47.25 19.5625 C 46.589844 19.890625 45.816406 20.34375 44.9375 20.96875 C 43.179688 22.21875 41.027344 24.085938 38.96875 26.5625 C 34.847656 31.519531 31 38.988281 31 48.9375 C 30.996094 49.296875 31.183594 49.632813 31.496094 49.816406 C 31.808594 49.996094 32.191406 49.996094 32.503906 49.816406 C 32.816406 49.632813 33.003906 49.296875 33 48.9375 C 33 39.503906 36.648438 32.515625 40.53125 27.84375 C 42.472656 25.507813 44.476563 23.773438 46.09375 22.625 C 46.117188 22.609375 46.132813 22.609375 46.15625 22.59375 C 45.429688 23.496094 44.785156 24.171875 43.90625 25.59375 C 41.074219 30.183594 38 37.628906 38 48.9375 C 37.996094 49.296875 38.183594 49.632813 38.496094 49.816406 C 38.808594 49.996094 39.191406 49.996094 39.503906 49.816406 C 39.816406 49.632813 40.003906 49.296875 40 48.9375 C 40 37.988281 42.929688 30.972656 45.59375 26.65625 C 46.925781 24.496094 48.191406 23.03125 49.03125 22.0625 C 49.453125 21.578125 49.757813 21.242188 50 20.84375 C 50.121094 20.644531 50.410156 20.359375 50.15625 19.71875 C 50.027344 19.398438 49.714844 19.171875 49.5 19.09375 C 49.285156 19.015625 49.132813 19 49 19 Z" fill="#333333"/></svg>
