<svg width="96" height="96" viewBox="0 0 96 96" fill="none" xmlns="http://www.w3.org/2000/svg">
<g opacity="0.35">
<path d="M72 84H24C17.3698 84 12 78.6302 12 72V24C12 17.3698 17.3698 12 24 12H72C78.6302 12 84 17.3698 84 24V72C84 78.6302 78.6302 84 72 84Z" fill="#3E4A55"/>
</g>
<path d="M68 56C65.7917 56 64 54.2135 64 52V32H44C41.7917 32 40 30.2135 40 28C40 25.7865 41.7917 24 44 24H68C70.2083 24 72 25.7865 72 28V52C72 54.2135 70.2083 56 68 56Z" fill="#3E4A55"/>
<path d="M40 60C38.974 60 37.9531 59.6094 37.1719 58.8281C35.6094 57.2656 35.6094 54.7344 37.1719 53.1719L65.1719 25.1719C66.7344 23.6094 69.2656 23.6094 70.8281 25.1719C72.3906 26.7344 72.3906 29.2656 70.8281 30.8281L42.8281 58.8281C42.0469 59.6094 41.026 60 40 60Z" fill="#3E4A55"/>
</svg>
