<?xml version="1.0" encoding="utf-8"?>
<svg xmlns="http://www.w3.org/2000/svg" viewBox="0 0 50 50" fill="#333333"><path d="M 37 3 L 33 11 L 36 10 L 32 18 L 41 8 L 38 9 L 41.841797 3 L 37 3 z M 25 9 C 18.025 9 11.841094 13.557203 9.7460938 20.158203 C 7.5680938 20.717203 6 22.693 6 25 C 6 27.307 7.5680938 29.282797 9.7460938 29.841797 C 11.365094 34.943797 15.454469 38.918672 20.605469 40.388672 C 21.475469 41.990672 23.15 43 25 43 C 26.85 43 28.524531 41.990672 29.394531 40.388672 C 34.545531 38.918672 38.635906 34.943797 40.253906 29.841797 C 42.431906 29.282797 44 27.307 44 25 C 44 22.693 42.431906 20.717203 40.253906 20.158203 C 39.888906 19.006203 39.391922 17.922203 38.794922 16.908203 C 38.242922 17.280203 37.685766 17.654484 37.134766 18.021484 C 37.718766 19.033484 38.184906 20.128969 38.503906 21.292969 C 38.611906 21.685969 38.946562 21.974484 39.351562 22.021484 C 40.860563 22.196484 42 23.477 42 25 C 42 26.523 40.860563 27.803516 39.351562 27.978516 C 38.946562 28.025516 38.611906 28.313031 38.503906 28.707031 C 37.172906 33.557031 33.318313 37.337266 28.445312 38.572266 C 28.140313 38.649266 27.891531 38.864297 27.769531 39.154297 C 27.300531 40.275297 26.213 41 25 41 C 23.787 41 22.700469 40.275297 22.230469 39.154297 C 22.108469 38.864297 21.857734 38.649266 21.552734 38.572266 C 16.679734 37.337266 12.827094 33.556031 11.496094 28.707031 C 11.388094 28.314031 11.051484 28.025516 10.646484 27.978516 C 9.1384844 27.803516 8 26.523 8 25 C 8 23.477 9.1394375 22.196484 10.648438 22.021484 C 11.053437 21.974484 11.388094 21.686969 11.496094 21.292969 C 13.159094 15.232969 18.712 11 25 11 C 26.731 11 28.400125 11.330875 29.953125 11.921875 C 29.955125 11.195875 29.959891 10.482875 29.962891 9.796875 C 28.389891 9.279875 26.719 9 25 9 z M 18.023438 24.996094 A 1.0001 1.0001 0 0 0 17.683594 26.949219 L 20.683594 27.949219 A 1.0005646 1.0005646 0 1 0 21.316406 26.050781 L 18.316406 25.050781 A 1.0001 1.0001 0 0 0 18.023438 24.996094 z M 32.046875 24.996094 A 1.0001 1.0001 0 0 0 31.683594 25.050781 L 28.683594 26.050781 A 1.0005646 1.0005646 0 1 0 29.316406 27.949219 L 32.316406 26.949219 A 1.0001 1.0001 0 0 0 32.046875 24.996094 z M 25 31 A 3 2.5 0 0 0 22 33.5 A 3 2.5 0 0 0 25 36 A 3 2.5 0 0 0 28 33.5 A 3 2.5 0 0 0 25 31 z" clip-rule="evenodd" fill-rule="evenodd" fill="#333333"/></svg>
