<?xml version="1.0" encoding="UTF-8"?>
<svg xmlns="http://www.w3.org/2000/svg" xmlns:xlink="http://www.w3.org/1999/xlink" width="72pt" height="72pt" viewBox="0 0 72 72" version="1.1">
<g id="surface3726">
<path style=" stroke:none;fill-rule:nonzero;fill:rgb(0.784314%,53.333336%,81.960785%);fill-opacity:1;" d="M 12.632812 21 L 12.710938 21 C 16.894531 21 19.5 18 19.5 14.25 C 19.421875 10.417969 16.894531 7.5 12.789062 7.5 C 8.683594 7.5 6 10.417969 6 14.25 C 6 18 8.605469 21 12.632812 21 Z M 12.632812 21 "/>
<path style=" stroke:none;fill-rule:nonzero;fill:rgb(0.784314%,53.333336%,81.960785%);fill-opacity:1;" d="M 6 25.5 L 19.5 25.5 L 19.5 64.5 L 6 64.5 Z M 6 25.5 "/>
<path style=" stroke:none;fill-rule:nonzero;fill:rgb(0.784314%,53.333336%,81.960785%);fill-opacity:1;" d="M 66 39.75 C 66 31.878906 59.621094 25.5 51.75 25.5 C 47.171875 25.5 43.105469 27.667969 40.5 31.027344 L 40.5 25.5 L 27 25.5 L 27 64.5 L 40.5 64.5 L 40.5 42 C 40.5 38.6875 43.1875 36 46.5 36 C 49.8125 36 52.5 38.6875 52.5 42 L 52.5 64.5 L 66 64.5 C 66 64.5 66 41.933594 66 39.75 Z M 66 39.75 "/>
</g>
</svg>
