<?xml version="1.0" encoding="UTF-8"?>
<svg xmlns="http://www.w3.org/2000/svg" xmlns:xlink="http://www.w3.org/1999/xlink" width="180pt" height="180pt" viewBox="0 0 180 180" version="1.1">
<g id="surface6841">
<path style=" stroke:none;fill-rule:nonzero;fill:rgb(25.882354%,25.882354%,25.882354%);fill-opacity:1;" d="M 97.5 90 C 97.5 114.851562 77.351562 135 52.5 135 C 27.648438 135 7.5 114.851562 7.5 90 C 7.5 65.148438 27.648438 45 52.5 45 C 77.351562 45 97.5 65.148438 97.5 90 Z M 97.5 90 "/>
<path style=" stroke:none;fill-rule:nonzero;fill:rgb(25.882354%,25.882354%,25.882354%);fill-opacity:1;" d="M 150 90 C 150 112.78125 139.925781 131.25 127.5 131.25 C 115.074219 131.25 105 112.78125 105 90 C 105 67.21875 115.074219 48.75 127.5 48.75 C 139.925781 48.75 150 67.21875 150 90 Z M 150 90 "/>
<path style=" stroke:none;fill-rule:nonzero;fill:rgb(25.882354%,25.882354%,25.882354%);fill-opacity:1;" d="M 172.5 90 C 172.5 110.710938 169.140625 127.5 165 127.5 C 160.859375 127.5 157.5 110.710938 157.5 90 C 157.5 69.289062 160.859375 52.5 165 52.5 C 169.140625 52.5 172.5 69.289062 172.5 90 Z M 172.5 90 "/>
</g>
</svg>
