<?xml version="1.0" encoding="UTF-8"?> <svg xmlns="http://www.w3.org/2000/svg" width="44" height="44" viewBox="0 0 44 44" fill="none"> <path d="M40 0H4C1.791 0 0 1.791 0 4V40C0 42.209 1.791 44 4 44H40C42.209 44 44 42.209 44 40V4C44 1.791 42.209 0 40 0Z" fill="url(#paint0_linear)"></path> <path d="M9.5 16H11.5C12.605 16 13.5 16.895 13.5 18V35C13.5 36.105 12.605 37 11.5 37H9.5C8.395 37 7.5 36.105 7.5 35V18C7.5 16.895 8.395 16 9.5 16ZM10.481 13H10.448C8.658 13 7.5 11.664 7.5 10C7.5 8.294 8.695 7 10.519 7C12.342 7 13.467 8.294 13.5 10C13.5 11.664 12.342 13 10.481 13ZM35.5 37H33.5C32.395 37 31.5 36.105 31.5 35V25.628C31.5 22.879 29.994 21.004 27.261 21.004C25.308 21.004 24.128 22.269 23.635 23.489C23.454 23.929 23.5 25.14 23.5 25.75V35C23.5 36.105 22.612 37 21.507 37H19.5C18.395 37 17.5 36.105 17.5 35V18C17.5 16.895 18.395 16 19.5 16H21.507C22.612 16 23.507 16.895 23.507 18V19.021C24.411 17.625 26.064 16 29.673 16C34.146 16 37.5 18.563 37.5 24.842V35C37.5 36.105 36.605 37 35.5 37Z" fill="white"></path> <defs> <linearGradient id="paint0_linear" x1="22" y1="47.381" x2="22" y2="3.381" gradientUnits="userSpaceOnUse"> <stop stop-color="#155CDE"></stop> <stop offset="0.278" stop-color="#1F7FE5"></stop> <stop offset="0.569" stop-color="#279CEB"></stop> <stop offset="0.82" stop-color="#2CAFEF"></stop> <stop offset="1" stop-color="#2EB5F0"></stop> </linearGradient> </defs> </svg> 