<svg width="32" height="32" viewBox="0 0 32 32" fill="none" xmlns="http://www.w3.org/2000/svg">
<path d="M2.1793 23.5352C1.87143 24.0372 1.52568 24.6198 1.23202 25.084C1.10567 25.2975 1.06813 25.5521 1.12747 25.793C1.18681 26.0339 1.33829 26.2419 1.54936 26.3723L7.70663 30.1614C7.81363 30.2274 7.9327 30.2715 8.05692 30.2911C8.18113 30.3106 8.308 30.3053 8.43012 30.2753C8.55224 30.2453 8.66717 30.1913 8.7682 30.1165C8.86924 30.0416 8.95436 29.9474 9.0186 29.8393C9.26489 29.4272 9.58223 28.892 9.92799 28.3189C12.3672 24.293 14.8206 24.7856 19.2444 26.898L25.3496 29.8014C25.464 29.8559 25.5882 29.8868 25.7149 29.8924C25.8415 29.898 25.968 29.8781 26.0868 29.834C26.2056 29.7898 26.3143 29.7222 26.4065 29.6353C26.4988 29.5483 26.5726 29.4438 26.6237 29.3278L29.5555 22.6969C29.655 22.4692 29.6612 22.2116 29.5726 21.9795C29.484 21.7474 29.3077 21.5593 29.0818 21.4559C27.7935 20.8497 25.2312 19.6419 22.9246 18.5289C14.6265 14.4982 7.57401 14.7587 2.1793 23.5352V23.5352Z" fill="url(#paint0_linear)"/>
<path d="M29.7876 8.48778C30.0955 7.98572 30.4412 7.40315 30.7349 6.93899C30.8612 6.72547 30.8988 6.4709 30.8394 6.23C30.7801 5.9891 30.6286 5.7811 30.4176 5.6507L24.2603 1.8616C24.1525 1.789 24.0309 1.73936 23.9031 1.71576C23.7753 1.69216 23.644 1.69511 23.5174 1.72443C23.3908 1.75376 23.2716 1.80882 23.1671 1.88619C23.0627 1.96357 22.9753 2.06161 22.9104 2.1742C22.6641 2.58627 22.3468 3.12148 22.001 3.69458C19.5618 7.72049 17.1084 7.2279 12.6846 5.11549L6.59838 2.2263C6.48394 2.17183 6.35972 2.14088 6.23309 2.13528C6.10647 2.12969 5.98 2.14956 5.8612 2.19373C5.74239 2.23789 5.63365 2.30545 5.54143 2.39241C5.44921 2.47936 5.37538 2.58394 5.3243 2.69994L2.39249 9.33085C2.29293 9.55848 2.28679 9.81611 2.37538 10.0482C2.46398 10.2804 2.64022 10.4684 2.86613 10.5718C4.15442 11.178 6.71679 12.3858 9.0234 13.4988C17.3405 17.5248 24.3929 17.2548 29.7876 8.48778V8.48778Z" fill="url(#paint1_linear)"/>
<defs>
<linearGradient id="paint0_linear" x1="29.3897" y1="32.1175" x2="10.7616" y2="21.4133" gradientUnits="userSpaceOnUse">
<stop offset="0.18" stop-color="#0052CC"/>
<stop offset="1" stop-color="#2684FF"/>
</linearGradient>
<linearGradient id="paint1_linear" x1="-7854.33" y1="22346.2" x2="-7209.38" y2="23086.4" gradientUnits="userSpaceOnUse">
<stop offset="0.18" stop-color="#0052CC"/>
<stop offset="1" stop-color="#2684FF"/>
</linearGradient>
</defs>
</svg>
