<svg width="32" height="32" viewBox="0 0 32 32" fill="none" xmlns="http://www.w3.org/2000/svg">
<path d="M21.0443 30.3435C23.2937 22.2776 22.4843 18.2118 18.5408 17.4306C19.1432 20.1694 19.8208 22.9835 16.9408 24.8847C15.4349 25.8823 14.2396 25.4965 11.5667 23.4447C10.3337 25.9765 10.7479 28.4988 11.322 31.2C7.49139 30.5318 4.47021 28.9412 3.06786 25.2423C1.61845 21.8729 2.41844 17.967 5.05374 15.4259C5.97609 14.4847 6.97374 13.6282 8.03727 12.8565C12.3479 9.61881 13.1855 6.47528 10.9079 1.6094C10.8043 1.32705 10.7196 1.04469 10.6632 0.75293C15.4537 1.47764 19.9902 3.40705 23.849 6.34352C32.2537 13.2141 31.2373 25.5718 21.9573 30.1082C21.6373 30.127 21.3361 30.2023 21.0443 30.3435V30.3435Z" fill="#EE4854"/>
</svg>
