<svg width="54" height="54" viewBox="0 0 54 54" fill="none" xmlns="http://www.w3.org/2000/svg">
<path d="M48.396 49.014H19.408C17.754 49.014 16.273 48.158 15.448 46.725C14.623 45.292 14.625 43.582 15.455 42.151L24.365 26.79C24.916 25.839 25.902 25.272 27.001 25.272C28.1 25.272 29.085 25.84 29.637 26.79L33.889 34.121L39.03 25.26L28.319 6.79401C27.921 6.10901 27.265 6.03501 27.001 6.03501C26.737 6.03501 26.081 6.10901 25.683 6.79401L4.28696 43.681C3.88796 44.369 4.15196 44.976 4.28396 45.206C4.41596 45.436 4.80896 45.969 5.60396 45.969H11.05C11.891 45.969 12.573 46.651 12.573 47.492C12.573 48.333 11.891 49.015 11.05 49.015H5.60496C3.95096 49.015 2.46996 48.159 1.64496 46.726C0.819962 45.293 0.821962 43.583 1.65196 42.152L23.048 5.26501C23.875 3.83901 25.353 2.98801 27.001 2.98801C28.649 2.98801 30.127 3.83901 30.954 5.26501L40.791 22.224L48.561 8.83301C48.983 8.10501 49.915 7.85701 50.643 8.28001C51.371 8.70301 51.619 9.63401 51.196 10.362L42.553 25.26L52.351 42.151C53.181 43.582 53.184 45.292 52.358 46.725C51.532 48.158 50.051 49.014 48.396 49.014ZM27 28.318L18.09 43.679C17.691 44.367 17.955 44.974 18.087 45.204C18.219 45.434 18.612 45.967 19.407 45.967H48.395C49.19 45.967 49.583 45.433 49.715 45.204C49.847 44.975 50.112 44.367 49.712 43.679L40.788 28.295L36.521 35.649C35.97 36.599 34.984 37.167 33.885 37.167C32.786 37.167 31.801 36.599 31.249 35.649L26.997 28.318H27Z" fill="#E52528"/>
<path d="M51.442 17.01C50.768 17.01 50.152 16.56 49.971 15.878L48.797 11.461L44.38 12.635C43.567 12.851 42.733 12.367 42.516 11.554C42.299 10.741 42.784 9.907 43.597 9.69L49.487 8.125C50.3 7.909 51.134 8.393 51.351 9.206L52.916 15.096C53.132 15.909 52.648 16.743 51.835 16.96C51.703 16.995 51.571 17.01 51.442 17.01Z" fill="#E52528"/>
<path d="M48.396 49.014H19.408C17.754 49.014 16.273 48.158 15.448 46.725C14.623 45.292 14.625 43.582 15.455 42.151L24.365 26.79C24.916 25.839 25.902 25.272 27.001 25.272C28.1 25.272 29.085 25.84 29.637 26.79L33.889 34.121L39.03 25.26L28.319 6.79401C27.921 6.10901 27.265 6.03501 27.001 6.03501C26.737 6.03501 26.081 6.10901 25.683 6.79401L4.28696 43.681C3.88796 44.369 4.15196 44.976 4.28396 45.206C4.41596 45.436 4.80896 45.969 5.60396 45.969H11.05C11.891 45.969 12.573 46.651 12.573 47.492C12.573 48.333 11.891 49.015 11.05 49.015H5.60496C3.95096 49.015 2.46996 48.159 1.64496 46.726C0.819962 45.293 0.821962 43.583 1.65196 42.152L23.048 5.26501C23.875 3.83901 25.353 2.98801 27.001 2.98801C28.649 2.98801 30.127 3.83901 30.954 5.26501L40.791 22.224L48.561 8.83301C48.983 8.10501 49.915 7.85701 50.643 8.28001C51.371 8.70301 51.619 9.63401 51.196 10.362L42.553 25.26L52.351 42.151C53.181 43.582 53.184 45.292 52.358 46.725C51.532 48.158 50.051 49.014 48.396 49.014ZM27 28.318L18.09 43.679C17.691 44.367 17.955 44.974 18.087 45.204C18.219 45.434 18.612 45.967 19.407 45.967H48.395C49.19 45.967 49.583 45.433 49.715 45.204C49.847 44.975 50.112 44.367 49.712 43.679L40.788 28.295L36.521 35.649C35.97 36.599 34.984 37.167 33.885 37.167C32.786 37.167 31.801 36.599 31.249 35.649L26.997 28.318H27Z" stroke="#E52528" stroke-width="2"/>
<path d="M51.442 17.01C50.768 17.01 50.152 16.56 49.971 15.878L48.797 11.461L44.38 12.635C43.567 12.851 42.733 12.367 42.516 11.554C42.299 10.741 42.784 9.907 43.597 9.69L49.487 8.125C50.3 7.909 51.134 8.393 51.351 9.206L52.916 15.096C53.132 15.909 52.648 16.743 51.835 16.96C51.703 16.995 51.571 17.01 51.442 17.01Z" stroke="#E52528" stroke-width="2"/>
</svg>
